├â┼╕├â┼╕├â┼╕├â┼╕├â┼╕├â┼╕├â┼╕├â┼╕├â┼╕├â┼╕├â┼╕├â┼╕├â┼╕├â┼╕├â┼╕├â┼╕├â┼╕├â┼╕├â┼╕├â┼╕├â┼╕├â┼╕├â┼╕├â┼╕├â┼╕├â┼╕├â┼╕├â┼╕├â┼╕├â┼╕├â┼╕├â┼╕├â┼╕├â┼╕├â┼╕├â┼╕├â┼╕├â┼╕├â┼╕├â┼╕├â┼╕├â┼╕├â┼╕├â┼╕├â┼╕├â┼╕├â┼╕├â┼╕├â┼╕├â┼╕├â┼╕├â┼╕├â┼╕├â┼╕├â┼╕├â┼╕├â┼╕├â┼╕├â┼╕├â┼╕├â┼╕├â┼╕├â┼╕├â┼╕├â┼╕├â┼╕├â┼╕├â┼╕├â┼╕├â┼╕

             ├âΓÇ║├é┬░├é┬░├é┬░├é┬░├é┬░├é┬░├é┬░├é┬░├é┬░├é┬░├é┬░├é┬░├é┬░├é┬░├é┬░├é┬░├é┬░├é┬░├é┬░├é┬░├é┬░├é┬░├é┬░├é┬░├é┬░├é┬░├é┬░├é┬░├é┬░├é┬░├é┬░├é┬░├é┬░├é┬░├é┬░├é┬░├é┬░├é┬░├é┬░├é┬░├é┬░├é┬░├é┬░├é┬░├é┬░├é┬░├é┬░├é┬░├âΓÇ║
            ├âΓÇ║├âΓÇ║ Bring It On Fight To The Finish[2009]DvDrip-LW ├âΓÇ║├âΓÇ║
             ├âΓÇ║├é┬░├é┬░├é┬░├é┬░├é┬░├é┬░├é┬░├é┬░├é┬░├é┬░├é┬░├é┬░├é┬░├é┬░├é┬░├é┬░├é┬░├é┬░├é┬░├é┬░├é┬░├é┬░├é┬░├é┬░├é┬░├é┬░├é┬░├é┬░├é┬░├é┬░├é┬░├é┬░├é┬░├é┬░├é┬░├é┬░├é┬░├é┬░├é┬░├é┬░├é┬░├é┬░├é┬░├é┬░├é┬░├é┬░├é┬░├é┬░├âΓÇ║

File Name    : Bring It On Fight To The Finish[2009]DvDrip-LW
Type         : Movie
Format       : AVI
File Size    : 700 MB
Duration     : 01:42:06
Language     : English
Source       : DvD
Subtitles    : None
Genre        : Comedy
IMDB Link    : http://www.imdb.com/title/tt1349482/
IMDB Rating  : 5.6/10
IMDB Votes   : 223 Votes
     ├â┼ô├â┼ô├â┼ô├â┼ô├â┼ô├â┼ô├â┼ô├â┼ô├â┼ô├â┼ô├â┼ô├â┼ô├â┼ô├â┼ô├â┼ô├â┼ô├â┼ô├â┼ô├â┼ô├â┼ô├â┼ô├â┼ô├â┼ô├â┼ô├â┼ô├â┼ô├â┼ô├â┼ô├â┼ô├â┼ô├â┼ô├â┼ô├â┼ô├â┼ô├â┼ô├â┼ô├â┼ô├â┼ô├â┼ô├â┼ô├â┼ô├â┼ô├â┼ô├â┼ô├â┼ô├â┼ô├â┼ô├â┼ô├â┼ô├â┼ô├â┼ô├â┼ô├â┼ô├â┼ô├â┼ô├â┼ô├â┼ô├â┼ô├â┼ô├â┼ô├â┼ô├â┼ô├â┼ô├â┼ô├â┼ô├â┼ô├â┼ô├â┼ô├â┼ô├â┼ô
 
                        ├âΓÇ║├é┬░├é┬░├é┬░├é┬░├é┬░├é┬░├é┬░├é┬░├é┬░├é┬░├é┬░├é┬░├é┬░├é┬░├é┬░├é┬░├é┬░├é┬░├é┬░├é┬░├é┬░├é┬░├é┬░├é┬░├âΓÇ║
                       ├âΓÇ║├âΓÇ║       Video Info       ├âΓÇ║├âΓÇ║
                        ├âΓÇ║├é┬░├é┬░├é┬░├é┬░├é┬░├é┬░├é┬░├é┬░├é┬░├é┬░├é┬░├é┬░├é┬░├é┬░├é┬░├é┬░├é┬░├é┬░├é┬░├é┬░├é┬░├é┬░├é┬░├é┬░├âΓÇ║

Format                           : MPEG-4 Visual
Format profile                   : Streaming Video@L1
Format settings, BVOP            : Yes
Format settings, QPel            : No
Format settings, GMC             : No warppoints
Format settings, Matrix          : Default (H.263)
Muxing mode                      : Packed bitstream
Codec ID                         : XVID
Codec ID/Hint                    : XviD
Duration                         : 1h 42mn
Bit rate                         : 845 Kbps
Width                            : 624 pixels
Height                           : 336 pixels
Display aspect ratio             : 1.857
Frame rate                       : 23.976 fps
Resolution                       : 24 bits
Colorimetry                      : 4:2:0
Scan type                        : Progressive
Bits/(Pixel*Frame)               : 0.168
Stream size                      : 617 MiB (88%)
Writing library                  : XviD 1.2.1
     ├â┼ô├â┼ô├â┼ô├â┼ô├â┼ô├â┼ô├â┼ô├â┼ô├â┼ô├â┼ô├â┼ô├â┼ô├â┼ô├â┼ô├â┼ô├â┼ô├â┼ô├â┼ô├â┼ô├â┼ô├â┼ô├â┼ô├â┼ô├â┼ô├â┼ô├â┼ô├â┼ô├â┼ô├â┼ô├â┼ô├â┼ô├â┼ô├â┼ô├â┼ô├â┼ô├â┼ô├â┼ô├â┼ô├â┼ô├â┼ô├â┼ô├â┼ô├â┼ô├â┼ô├â┼ô├â┼ô├â┼ô├â┼ô├â┼ô├â┼ô├â┼ô├â┼ô├â┼ô├â┼ô├â┼ô├â┼ô├â┼ô├â┼ô├â┼ô├â┼ô├â┼ô├â┼ô├â┼ô├â┼ô├â┼ô├â┼ô├â┼ô├â┼ô├â┼ô├â┼ô

                         ├âΓÇ║├é┬░├é┬░├é┬░├é┬░├é┬░├é┬░├é┬░├é┬░├é┬░├é┬░├é┬░├é┬░├é┬░├é┬░├é┬░├é┬░├é┬░├é┬░├é┬░├é┬░├é┬░├é┬░├é┬░├é┬░├âΓÇ║
                        ├âΓÇ║├âΓÇ║      Sound Info        ├âΓÇ║├âΓÇ║
                         ├âΓÇ║├é┬░├é┬░├é┬░├é┬░├é┬░├é┬░├é┬░├é┬░├é┬░├é┬░├é┬░├é┬░├é┬░├é┬░├é┬░├é┬░├é┬░├é┬░├é┬░├é┬░├é┬░├é┬░├é┬░├é┬░├âΓÇ║

Format                           : MPEG Audio
Format version                   : Version 1
Format profile                   : Layer 3
Codec ID                         : 55
Codec ID/Hint                    : MP3
Duration                         : 1h 42mn
Bit rate mode                    : Variable
Bit rate                         : 102 Kbps
Channel(s)                       : 2 channels
Sampling rate                    : 44.1 KHz
Resolution                       : 16 bits
Stream size                      : 74.2 MiB (11%)
Alignment                        : Aligned on interleaves
Interleave, duration             : 26 ms (0.63 video frame)
Interleave, preload duration     : 394 ms
    ├â┼ô├â┼ô├â┼ô├â┼ô├â┼ô├â┼ô├â┼ô├â┼ô├â┼ô├â┼ô├â┼ô├â┼ô├â┼ô├â┼ô├â┼ô├â┼ô├â┼ô├â┼ô├â┼ô├â┼ô├â┼ô├â┼ô├â┼ô├â┼ô├â┼ô├â┼ô├â┼ô├â┼ô├â┼ô├â┼ô├â┼ô├â┼ô├â┼ô├â┼ô├â┼ô├â┼ô├â┼ô├â┼ô├â┼ô├â┼ô├â┼ô├â┼ô├â┼ô├â┼ô├â┼ô├â┼ô├â┼ô├â┼ô├â┼ô├â┼ô├â┼ô├â┼ô├â┼ô├â┼ô├â┼ô├â┼ô├â┼ô├â┼ô├â┼ô├â┼ô├â┼ô├â┼ô├â┼ô├â┼ô├â┼ô├â┼ô├â┼ô├â┼ô├â┼ô├â┼ô

                          ├âΓÇ║├é┬░├é┬░├é┬░├é┬░├é┬░├é┬░├é┬░├é┬░├é┬░├é┬░├é┬░├é┬░├é┬░├é┬░├é┬░├é┬░├é┬░├é┬░├é┬░├é┬░├é┬░├é┬░├é┬░├é┬░├âΓÇ║
                         ├âΓÇ║├âΓÇ║          Plot          ├âΓÇ║├âΓÇ║
                          ├âΓÇ║├é┬░├é┬░├é┬░├é┬░├é┬░├é┬░├é┬░├é┬░├é┬░├é┬░├é┬░├é┬░├é┬░├é┬░├é┬░├é┬░├é┬░├é┬░├é┬░├é┬░├é┬░├é┬░├é┬░├é┬░├âΓÇ║

After her mom gets remarried, Lina (Christina Milian) 
says adios to her East Los Angeles home and readjusts 
to life in affluent Malibu, where the new girl pledges 
to whip her school's ailing cheerleading squad into 
shape. But will Lina's fiery Latin and hip-hop moves 
be enough to topple the ranking champions, led by the 
formidable Avery (Rachele Brooke Smith)? The spirit is 
back in this high-energy addition to the cheerleading 
franchise.

Starring: Christina Milian, Rachele Brooke Smith

Director: Bille Woodruff
    ├â┼ô├â┼ô├â┼ô├â┼ô├â┼ô├â┼ô├â┼ô├â┼ô├â┼ô├â┼ô├â┼ô├â┼ô├â┼ô├â┼ô├â┼ô├â┼ô├â┼ô├â┼ô├â┼ô├â┼ô├â┼ô├â┼ô├â┼ô├â┼ô├â┼ô├â┼ô├â┼ô├â┼ô├â┼ô├â┼ô├â┼ô├â┼ô├â┼ô├â┼ô├â┼ô├â┼ô├â┼ô├â┼ô├â┼ô├â┼ô├â┼ô├â┼ô├â┼ô├â┼ô├â┼ô├â┼ô├â┼ô├â┼ô├â┼ô├â┼ô├â┼ô├â┼ô├â┼ô├â┼ô├â┼ô├â┼ô├â┼ô├â┼ô├â┼ô├â┼ô├â┼ô├â┼ô├â┼ô├â┼ô├â┼ô├â┼ô├â┼ô├â┼ô├â┼ô├â┼ô 
http://bit-byte.forums-free.com/